# xmcd
#
# Track frame offsets: 
#        150
#        15535
#        31356
#        43314
#        55496
#        69274
#        82300
#        98701
#        111348
#        131213
#        145975
#        157949
#        173107
#        187955
#        200351
#        214157
#        233973
#        246357
#        256563
#        269797
#
# Disc length: 3821 seconds
#
# Revision: 4
# Processed by: cddbd v1.5.2PL0 Copyright (c) Steve Scherf et al.
# Submitted via: ExactAudioCopyFreeDBPlugin 1.0
#
DISCID=290eeb14
DTITLE=鄧麗君 - 鄧麗君金曲選 Disc 3
DYEAR=1900
DGENRE=Pop
TTITLE0=你怎麼說
TTITLE1=甜蜜蜜
TTITLE2=小城故事
TTITLE3=水長流
TTITLE4=詩意
TTITLE5=又見炊煙
TTITLE6=香港之夜
TTITLE7=雲何
TTITLE8=恰似你的溫柔
TTITLE9=夜來香
TTITLE10=假如夢兒是真的
TTITLE11=何日君再來
TTITLE12=原鄉情濃
TTITLE13=獨上西樓
TTITLE14=胭脂淚\
TTITLE15=問自己
TTITLE16=人約黃昏後
TTITLE17=春風滿小城
TTITLE18=濃情萬縷\
TTITLE19=在水一方
EXTD=
EXTT0=
EXTT1=
EXTT2=
EXTT3=
EXTT4=
EXTT5=
EXTT6=
EXTT7=
EXTT8=
EXTT9=
EXTT10=
EXTT11=
EXTT12=
EXTT13=
EXTT14=
EXTT15=
EXTT16=
EXTT17=
EXTT18=
EXTT19=
PLAYORDER=
